<?xml version="1.0" encoding="UTF-8" standalone="no"?>
<!-- Created with Inkscape (http://www.inkscape.org/) -->

<svg
   width="210mm"
   height="297mm"
   viewBox="0 0 210 297"
   version="1.1"
   id="svg1"
   xml:space="preserve"
   inkscape:version="1.3.2 (091e20e, 2023-11-25)"
   sodipodi:docname="drawing.svg"
   inkscape:export-filename="drawing.svg"
   inkscape:export-xdpi="96"
   inkscape:export-ydpi="96"
   xmlns:inkscape="http://www.inkscape.org/namespaces/inkscape"
   xmlns:sodipodi="http://sodipodi.sourceforge.net/DTD/sodipodi-0.dtd"
   xmlns="http://www.w3.org/2000/svg"
   xmlns:svg="http://www.w3.org/2000/svg"><sodipodi:namedview
     id="namedview1"
     pagecolor="#ffffff"
     bordercolor="#000000"
     borderopacity="0.25"
     inkscape:showpageshadow="2"
     inkscape:pageopacity="0.0"
     inkscape:pagecheckerboard="0"
     inkscape:deskcolor="#d1d1d1"
     inkscape:document-units="mm"
     inkscape:zoom="1.0971294"
     inkscape:cx="393.29911"
     inkscape:cy="800.726"
     inkscape:window-width="1712"
     inkscape:window-height="930"
     inkscape:window-x="0"
     inkscape:window-y="39"
     inkscape:window-maximized="0"
     inkscape:current-layer="layer1" /><defs
     id="defs1" /><g
     inkscape:label="Layer 1"
     inkscape:groupmode="layer"
     id="layer1"><path
       style="display:none;fill:#ed1c24;fill-opacity:1;stroke:#000000;stroke-width:0;stroke-dasharray:none;stroke-opacity:1"
       d="m 113.05042,196.47652 38.23407,-0.0844 3.30195,-27.88354 22.59359,-16.34098 0.4189,-2.1258 0.62304,-3.69375 0.31152,-2.93719 0.26702,-3.22647 0.11125,-3.73825 -0.11125,-2.55893 -0.26702,-3.93851 -0.44503,-3.56024 -0.37828,-2.33641 -0.53403,-2.46991 -0.55629,-2.44767 -0.71205,-2.53667 -0.51178,-1.69111 -1.02357,-2.95945 -1.15708,-2.91495 -1.31284,-3.00395 -1.5576,-3.07071 -1.55761,-2.80369 -1.5576,-2.46991 -1.64661,-2.51442 -1.22384,-1.668862 -3.18196,-3.960765 -1.95813,-2.202899 -3.29268,-3.402203 -4.19849,-3.755321 -3.93804,-3.032247 -4.99543,-3.300484 -4.46673,-2.507435 -4.47062,-2.142011 -5.35697,-2.048711 -7.22686,-2.052595 -6.19278,-1.146813 -3.65813,-0.392636 -2.69015,-0.178827 -1.4928,-0.167161 -5.01098,0.0078 -4.229585,0.396523 -6.278306,0.851363 -5.112057,1.158473 -2.239198,0.633661 -2.577409,0.785275 -3.58816,1.34896 -2.394696,0.987425 -4.206272,2.06426 -3.576494,1.955409 -2.048712,1.240112 -1.772697,1.177912 -2.235311,1.597761 -2.149785,1.605534 -2.589072,2.165336 -2.771783,2.480223 -1.877661,1.873771 -2.589072,2.767897 -1.69495,1.978736 -2.142008,2.690146 -2.060374,2.84176 -1.337297,2.048711 -1.430599,2.324722 -1.3373,2.32861 -1.337296,2.60073 -1.247887,2.6746 -1.166248,2.7679 -1.251776,3.38989 -0.711412,2.1459 -0.898011,3.30437 -0.878573,3.93026 -0.633661,3.76699 -0.349875,3.07112 -0.182713,3.30437 -0.10885,5.90899 0.276011,3.27716 0.540364,5.03819 0.454837,2.57741 0.439285,1.87766 22.593528,16.46445 3.227406,27.75719 38.280236,0.10554 0.288409,0.3393 0.619233,0.60227 0.525926,0.41565 0.678611,0.42413 0.636197,0.39021 0.602267,0.30537 0.85675,0.36475 0.91612,0.27145 0.78889,0.16117 0.72103,0.11876 0.75495,0.0848 1.73895,0.008 1.06033,-0.1951 1.09426,-0.27145 1.23847,-0.44958 0.89068,-0.43261 0.6362,-0.37324 0.50896,-0.37324 0.64468,-0.52592 0.54289,-0.53441 z"
       id="path1"
       inkscape:label="path1" /><path
       style="display:none;fill:#ffd500;fill-opacity:1;stroke:#000000;stroke-width:0;stroke-dasharray:none"
       d="m 139.94586,183.26883 2.75723,-21.88429 22.41399,-16.09089 0.2849,-1.15163 0.44139,-2.34338 0.2528,-2.24708 0.10433,-1.46461 -0.004,-3.66354 -0.45342,-3.3987 -0.52967,-2.15479 -0.61795,-1.88193 -0.5417,-1.26398 -0.71024,-1.41646 h -0.18057 l -39.29176,40.01805 38.47318,-47.07227 0.012,-0.70221 -0.35311,-1.3322 -0.634,-1.63314 -0.71024,-1.60105 -0.71024,-1.42047 -0.81857,-1.52882 -0.88278,-1.51276 -0.99514,-1.5248 -0.97908,-1.43252 -0.9831,-1.25194 -1.24392,-1.34022 -1.25595,-0.9831 -0.0923,-0.0722 -0.18859,-0.008 -34.2238,59.45527 30.49205,-64.860298 V 95.19586 l -0.45343,-0.814568 -0.44139,-0.537694 -0.36114,-0.433364 -0.61795,-0.63801 -0.71826,-0.710237 -0.64202,-0.638009 -0.48553,-0.437377 -1.28806,-1.071375 -0.80654,-0.621958 -0.71425,-0.537695 -0.54572,-0.441391 -1.34022,-0.886793 -0.8266,-0.529667 -0.61393,-0.369165 -0.51362,-0.280884 -0.97909,-0.529667 -0.73431,-0.357127 -0.6982,-0.268845 -0.6982,-0.260821 -0.91087,-0.276874 -0.8587,-0.168531 -0.73431,-0.004 -20.83764,73.254742 15.29217,-76.107728 v -0.361138 l -0.63801,-0.453429 -0.62196,-0.353111 -0.81055,-0.457441 -0.70221,-0.349101 -1.0794,-0.441389 -0.91489,-0.373176 -1.07137,-0.353113 -0.91087,-0.256807 -1.02322,-0.276873 -1.05132,-0.25681 -0.99914,-0.180568 -1.58901,-0.268846 -1.48869,-0.184581 -1.86587,-0.08025 -2.77675,-0.008 -0.8266,0.0963 -0.55375,0.08828 -0.10031,0.08828 -3.1098,80.296921 -3.13788,-80.296921 -0.2207,-0.09229 -0.80654,-0.08828 -0.62597,-0.09229 h -3.503028 l -1.127551,0.09229 -0.886794,0.0963 -0.629986,0.0963 -2.098609,0.349102 -2.243066,0.53368 -1.163664,0.357124 -1.613082,0.533681 -0.802526,0.357127 -1.155642,0.537691 -1.424485,0.806543 -0.806543,0.529666 0.004,0.421328 L 98.266489,157.7409 77.404776,84.377817 h -0.95902 l -1.175702,0.276874 -1.677284,0.625972 -1.087424,0.545719 -0.806543,0.42935 -0.621958,0.357127 -0.718262,0.453427 -0.714251,0.449416 -1.420474,0.979085 -0.71425,0.529667 -0.722273,0.541707 -0.449416,0.365149 -0.617948,0.513617 -0.814564,0.742339 -0.706226,0.621959 -0.638008,0.617947 -1.055325,1.187741 -0.517631,0.609921 -0.46948,0.710237 -0.172542,0.337063 v 0.176556 l 30.596374,65.00074 -34.288002,-59.5275 -0.148469,-0.008 -0.625969,0.36113 -0.449416,0.36114 -0.718262,0.69419 -0.537694,0.63399 -0.449416,0.54974 -0.613934,0.7945 -0.80654,1.06736 -0.537694,0.80654 -0.80654,1.25194 -0.529669,0.90285 -0.625973,1.15162 -0.718262,1.34023 -0.441391,0.89482 -0.613934,1.28805 -0.453427,1.05533 -0.361137,0.955 -0.180568,0.55776 -0.184581,0.65005 v 1.09946 l 38.384905,46.92782 -39.215522,-39.94583 -0.240758,-0.008 -0.529669,1.00717 -0.533681,1.24392 -0.461454,1.25595 -0.429353,1.40443 -0.180567,0.83061 -0.184582,0.72228 -0.100316,0.56177 -0.06822,0.50158 -0.200631,1.33621 -0.08025,0.82259 -0.08427,1.09545 -0.01204,2.857 0.09229,1.21583 0.0963,0.93093 0.18057,1.34022 0.264835,1.62111 0.276871,1.34022 0.276873,0.97507 22.221994,16.02648 v 0.32904 l 0.184581,1.32417 0.164521,1.17971 0.188592,1.58098 0.184581,1.35627 0.176557,1.4285 0.168531,1.24793 0.180568,1.60907 0.200634,1.52079 0.264832,1.97824 0.280887,2.04243 0.164517,1.43251 0.617945,4.9195 27.310022,0.008 0.834631,0.79049 0.790491,0.634 0.983094,0.70622 2.03841,1.24793 0.99915,0.45343 1.08743,0.35713 0.52164,0.0843 0.7945,0.012 0.86673,-0.18057 0.7303,-0.27286 0.80253,-0.36113 1.00316,-0.54974 1.13157,-0.71023 0.7303,-0.53368 0.8908,-0.71024 0.52566,-0.44942 0.55374,-0.51361 27.26588,-0.008 z"
       id="path2"
       inkscape:label="path2" /><path
       style="display:none;fill:none;stroke:#000000;stroke-width:0.1;stroke-dasharray:none"
       d="m 37.585329,208.38305 c 0,0 -9.456816,-0.65363 -10.001326,6.01214 -0.54674,6.69307 0.500453,7.68952 0.548277,8.14853 0.04232,0.40616 1.461046,1.59647 1.833891,1.92843 0.360829,0.32126 2.987164,1.36123 2.476698,1.15327 -0.510463,-0.20797 1.172178,0.37812 2.079673,0.37812 0.907492,0 17.07221,0.64281 17.07221,0.64281 0,0 2.85482,0.47265 2.703571,3.422 -0.151247,2.94935 -0.708954,2.76618 -0.737336,3.04388 -0.01291,0.12635 -0.504562,1.43096 -3.384193,1.36124 -2.855549,-0.0691 -7.027659,-0.12958 -7.027659,-0.12958 -0.04963,0.033 -0.957633,-0.05 -1.938886,-1.40127 -0.182693,-0.25159 -0.318727,-0.39361 -0.488128,-1.47815 -0.05355,-0.34283 -0.05987,-0.87399 -0.187439,-1.47172 -0.05368,-0.25151 -5.007915,-0.10642 -7.335157,-0.13407 -4.32018,-0.0513 -7.208098,0.15868 -6.560828,-0.10075 0.08093,-0.0324 -0.730053,4.24231 1.760214,7.21561 1.50309,1.79464 4.37121,2.76025 8.902827,2.85039 11.793349,0.23458 21.41261,-0.15354 20.532027,-0.0945 0,0 1.734042,0.003 3.685224,-0.16209 1.592915,-0.13478 3.095287,-0.63584 4.48753,-1.93999 1.328076,-1.24405 1.976475,-3.29623 2.047528,-6.19623 0.192942,-7.8748 -1.86218,-8.2677 -5.840553,-9.95724 -0.870023,-0.36949 -1.872565,-0.51135 -3.249088,-0.58539 -6.52298,-0.35085 -10.929663,-0.32736 -16.658712,-0.79389 -0.996956,-0.0812 -1.972965,-1.54934 -2.062862,-2.82533 -0.176976,-2.51198 0.409737,-4.12004 5.439458,-4.27548 4.920544,-0.15207 6.820479,0.39882 7.623849,1.07823 0.815881,0.68999 0.494176,1.7475 0.995179,3.47121 0.14509,0.49918 3.181827,0.50353 6.298831,0.46182 2.848155,-0.0381 5.848725,0.14399 6.710506,-0.32665 0.35151,-0.19197 0.657568,-3.42059 -0.344725,-6.04793 -0.363435,-0.95268 -1.317052,-1.6382 -2.619059,-2.31022 -0.866948,-0.44747 -1.469978,-0.81491 -4.064636,-1.10319 -1.143068,-0.127 -2.402249,-0.0114 -3.6834,-0.013 -2.273175,-0.003 -4.667991,0.06 -6.962921,0.0469 -6.656744,-0.0379 -12.464602,0.13214 -12.050585,0.13214 z"
       id="path3"
       sodipodi:nodetypes="cssssscssscssssssscssssssssssssssssscc" /><path
       style="display:none;fill:none;stroke:#000000;stroke-width:0.1;stroke-dasharray:none"
       d="m 73.567966,208.7598 0.06416,31.05253 c 3.926968,0.16606 7.857284,0.31037 11.860251,-0.0176 l 0.08908,-14.29867 c 2.532342,-2.48874 8.701571,-2.48626 10.409766,-0.0338 0.06787,4.81944 -0.0426,9.5497 0.20362,14.45832 3.806597,0.0511 7.516147,0.0549 11.322737,-0.0657 0.20025,-5.93525 0.2684,-11.8705 0.019,-17.80575 -0.99252,-2.52034 -4.31794,-4.07449 -8.734714,-4.38422 -2.611945,-0.22395 -5.23832,-0.11598 -7.866255,0.0279 -1.393143,0.18877 -2.811702,0.49445 -4.285792,1.05558 -0.372194,0.0555 -0.731236,0.0321 -1.087343,-0.009 l -0.01735,-9.5553 c 0.01337,-0.12283 -0.155417,-0.2954 -0.303586,-0.41823 z"
       id="path4"
       sodipodi:nodetypes="ccccccccccccccc" /><path
       style="display:none;fill:none;stroke:none;stroke-width:0;stroke-dasharray:none"
       d="m 122.36051,217.28563 c -3.98681,0.60318 -8.13154,0.9078 -9.28941,6.85884 -0.39828,3.81584 -0.77984,7.63206 0.49943,11.48691 1.35702,4.37078 7.13175,4.49256 8.95645,4.46158 5.87188,0.0571 11.72101,0.0686 17.51337,-0.0333 6.14106,0.19866 8.02566,-3.10227 8.50178,-7.08363 0.0281,-1.04223 -10.12845,-0.39809 -11.98617,-0.46438 -0.325,1.00305 -0.50951,3.04078 -3.45426,3.31457 l -5.96322,-0.13657 c -0.87288,-0.52649 -1.44071,-0.76196 -1.77487,-2.30249 -0.10596,-0.69474 -0.1707,-1.38948 -0.0724,-2.08422 -0.0477,-0.62038 0.50919,-0.63285 1.03933,-0.7829 7.3437,-0.0263 19.6227,0.25375 21.61382,-0.006 0.48139,0.0485 0.66569,-0.23036 0.65288,-0.67601 0.0287,-2.23522 0.14243,-4.47399 -0.23306,-6.69237 -0.56675,-3.39825 -2.99484,-4.40578 -5.59362,-5.19408 -6.57742,-0.94496 -13.54993,-0.62562 -20.41007,-0.66587 z"
       id="path5"
       sodipodi:nodetypes="cccccccccccccccccc" /><path
       style="display:none;fill:none;stroke:#000000;stroke-width:0.1;stroke-dasharray:none"
       d="m 126.16831,225.75018 c 3.31078,0.24153 6.62155,0.22972 9.93233,0 0.17892,-0.15016 0.27073,-0.25418 0.2731,-0.52882 0.0364,-0.34708 -0.006,-0.55669 -0.10245,-0.77106 -0.58853,-1.52068 -1.65091,-2.02538 -2.84008,-2.36763 -1.99719,-0.22887 -3.98123,-0.38452 -5.80789,0.33669 -0.87922,0.29806 -1.29784,0.98244 -1.68946,1.68946 -0.22315,0.60029 -0.0862,1.13703 0.23448,1.64136 z"
       id="path6"
       sodipodi:nodetypes="ccccccccc" /><path
       style="display:none;fill:none;stroke:#000000;stroke-width:0.1;stroke-dasharray:none"
       d="m 154.36101,208.84489 c -0.3862,10.28675 -0.27242,20.57349 -0.0359,30.86024 -0.62833,0.31409 7.54732,0.1251 11.67426,0.16746 l -0.0479,-31.14732 c -3.8635,0.0399 -7.84586,-0.0788 -11.59046,0.11962 z"
       id="path7"
       sodipodi:nodetypes="ccccc" /><path
       style="display:none;fill:none;stroke:#000000;stroke-width:0.1;stroke-dasharray:none"
       d="m 172.65114,208.69522 -0.01,31.09532 c 5.91016,0.25194 10.63597,0.33468 11.89455,-0.0779 0.16577,-10.31965 0.0901,-20.63929 -0.20458,-30.95894 z"
       id="path8"
       sodipodi:nodetypes="ccccc" /><g
       id="g1"
       style="stroke:none;stroke-opacity:1;stroke-width:0;stroke-dasharray:none"><path
         style="fill:#ed1c24;fill-opacity:1;stroke:none;stroke-width:0;stroke-dasharray:none;stroke-opacity:1"
         d="m 138.62181,905.82044 c -24.04592,-1.21482 -34.0986,-8.05771 -37.11796,-25.26629 -0.41981,-2.39269 -0.69224,-5.84501 -0.60539,-7.67182 l 0.1579,-3.32146 25.79318,-0.13731 c 14.18625,-0.0755 25.80484,-0.0755 25.81909,0 0.0143,0.0755 0.34981,2.24953 0.74566,4.83115 0.83801,5.46513 2.43985,8.18709 6.17328,10.49005 l 2.31424,1.42753 16.93091,0.15974 16.93091,0.15974 3.02383,-1.48489 c 2.71286,-1.33218 3.19382,-1.83017 4.67662,-4.84218 1.40559,-2.85515 1.69606,-4.14246 1.94206,-8.60688 0.33918,-6.15542 -0.21703,-8.36682 -2.83261,-11.26195 -3.68517,-4.07904 -3.01655,-3.98843 -38.8199,-5.26049 -35.10615,-1.24729 -38.25332,-1.56689 -45.31922,-4.60237 -3.40704,-1.46365 -5.16672,-2.64971 -8.00428,-5.39503 -3.18822,-3.08458 -3.74893,-3.92443 -4.54269,-6.80415 -1.47994,-5.36916 -2.02959,-12.03008 -1.64993,-19.99478 0.4423,-9.27873 0.91638,-11.86954 2.92236,-15.97051 3.7065,-7.57745 12.74914,-12.4225 26.00709,-13.9346 7.39931,-0.84391 91.96309,-1.32799 97.25212,-0.55671 5.649,0.82377 9.43761,2.08627 13.93744,4.64447 5.12906,2.91591 7.48437,5.41787 8.77619,9.32261 2.29475,6.9363 2.75251,18.50316 0.80919,20.44712 -1.50479,1.50529 -40.6974,1.91544 -46.37075,0.48527 -1.8302,-0.46136 -1.98105,-0.65972 -2.4778,-3.2581 -0.29094,-1.52175 -0.67076,-3.84599 -0.84406,-5.16497 -0.97123,-7.39201 -6.69526,-9.46207 -26.21021,-9.47875 -15.50045,-0.0133 -21.19708,1.4249 -24.55196,6.19832 -1.30625,1.85857 -1.58289,2.83936 -1.78263,6.32018 -0.13004,2.26612 0.022,5.07624 0.33787,6.24471 0.80975,2.99553 3.43659,6.93247 5.25188,7.8712 1.98474,1.02635 11.11802,1.67871 37.9403,2.70998 35.09287,1.34925 36.4834,1.54426 47.08266,6.60307 11.35393,5.41901 14.25315,11.67877 14.21431,30.69034 -0.0179,8.77985 -0.18597,10.92074 -1.12759,14.367 -2.02085,7.39613 -4.93931,11.58033 -10.5869,15.17848 -4.25567,2.71133 -8.38469,3.7653 -16.93678,4.32329 -10.29714,0.67185 -78.47912,1.08356 -89.25843,0.53899 z"
         id="path33"
         transform="scale(0.26458333)" /><path
         style="fill:#ed1c24;fill-opacity:1;stroke:none;stroke-width:0;stroke-dasharray:none;stroke-opacity:1"
         d="m 289.9418,906.31466 c -5.82,-0.20226 -10.76038,-0.39999 -10.97863,-0.4394 -0.21825,-0.0394 -0.39682,-26.26167 -0.39682,-58.27167 V 789.4036 h 21.58691 c 16.08436,0 21.74875,0.16184 22.22181,0.63491 0.46913,0.46912 0.63491,5.37097 0.63491,18.77264 v 18.13774 l 1.41194,0.35437 c 0.88778,0.22282 2.90105,-0.10029 5.42318,-0.87036 8.84678,-2.70114 12.4696,-3.20356 25.43943,-3.52799 19.20211,-0.48032 29.29709,0.86719 38.48221,5.13673 4.82961,2.24496 9.63751,6.34393 11.32811,9.65776 0.93011,1.82317 1.05351,3.62188 1.34325,19.57999 0.17548,9.66481 0.1388,24.65559 -0.0815,33.31284 l -0.40055,15.74045 h -21.10304 -21.10304 l -0.0719,-6.48136 c -0.0395,-3.56475 -0.21809,-15.99332 -0.39682,-27.61904 l -0.32495,-21.13768 -2.23155,-1.70109 c -1.22734,-0.9356 -3.60825,-2.25087 -5.2909,-2.92282 -2.71229,-1.08312 -3.95974,-1.22322 -10.99574,-1.23486 -6.42202,-0.0106 -8.49162,0.17737 -10.84636,0.9853 -3.69677,1.26838 -6.67628,2.74089 -8.86227,4.37982 l -1.71955,1.28922 v 18.14221 c 0,9.97822 -0.15594,22.09621 -0.34653,26.92888 l -0.34654,8.78668 -2.69574,0.27121 c -5.17779,0.52095 -19.18039,0.66036 -29.67937,0.29551 z"
         id="path34"
         transform="scale(0.26458333)" /><path
         style="fill:#ed1c24;fill-opacity:1;stroke:none;stroke-width:0;stroke-dasharray:none;stroke-opacity:1"
         d="m 474.77911,907.13608 c -20.43577,-0.16079 -20.94391,-0.19011 -26.50941,-1.52951 -7.86075,-1.89179 -13.51153,-5.5254 -16.7065,-10.74277 -1.79193,-2.92621 -3.55725,-8.85862 -4.56462,-15.33956 -1.23406,-7.93939 -0.53045,-27.48585 1.24662,-34.63125 1.75843,-7.07047 4.81587,-12.21306 9.29033,-15.62624 4.78074,-3.64682 9.87078,-5.39123 20.59379,-7.05769 l 4.4226,-0.68732 26.27545,0.12261 c 25.62732,0.11959 28.98341,0.21458 38.89286,1.10083 8.6616,0.77466 11.82985,1.28694 15.20397,2.45836 5.47612,1.90119 9.01071,3.91277 11.87162,6.75628 3.08552,3.06676 4.99285,7.24781 5.81944,12.75677 0.65206,4.34576 0.99092,13.21379 0.74949,19.61426 l -0.21486,5.69608 -0.73529,0.54759 -0.73528,0.54759 H 517.8796 476.07988 l -1.22602,0.56643 c -1.55644,0.71907 -1.63917,1.01516 -1.62271,5.80732 0.0238,6.93523 1.48283,10.19066 5.70437,12.72804 l 1.48252,0.89109 11.56868,0.2536 c 13.16531,0.28861 13.99163,0.2215 17.22418,-1.39883 3.28505,-1.64664 5.10689,-4.02902 6.41775,-8.39236 l 0.73957,-2.46175 9.77342,-0.22455 c 23.23465,-0.53383 33.4035,-0.12704 34.65964,1.38652 0.37356,0.45011 -0.24704,4.39582 -1.22165,7.76708 -0.75261,2.60335 -2.50998,6.49123 -3.74647,8.2884 -3.81906,5.55081 -9.65922,8.91178 -17.70681,10.19012 -1.90903,0.30324 -5.7868,0.41952 -17.04002,0.51094 -8.01271,0.0651 -17.37821,0.14874 -20.81223,0.18588 -3.43402,0.0371 -14.90676,-6.5e-4 -25.49499,-0.084 z m 34.99057,-53.31929 c 4.66991,-0.25714 4.83021,-0.2846 5.39818,-0.92489 0.47584,-0.53645 0.58534,-0.96787 0.58534,-2.30625 0,-1.40908 -0.15464,-1.95533 -1.07295,-3.79005 -1.45379,-2.90458 -3.4034,-4.8374 -6.26196,-6.20804 -1.18837,-0.5698 -2.62895,-1.15622 -3.20128,-1.30314 -3.28098,-0.84225 -13.77225,-1.09849 -17.59129,-0.42966 -4.55423,0.79759 -7.35257,2.06333 -9.35575,4.23177 -2.90133,3.14069 -3.66445,6.11209 -2.33952,9.10946 0.56182,1.27099 0.66922,1.3681 1.54726,1.3989 0.51895,0.0182 2.2313,0.11532 3.80522,0.21582 4.57019,0.29182 23.22499,0.2958 28.48675,0.006 z"
         id="path35"
         transform="scale(0.26458333)" /><path
         style="fill:#ed1c24;fill-opacity:1;stroke:none;stroke-width:0;stroke-dasharray:none;stroke-opacity:1"
         d="m 585.57201,906.18033 -1.85332,-0.0891 -0.16124,-3.04606 c -0.42878,-8.1006 -0.7402,-42.64158 -0.61267,-67.95422 0.1235,-24.51255 0.52561,-45.14921 0.8871,-45.52676 0.0685,-0.0716 9.7536,-0.16965 21.52245,-0.21801 l 21.3979,-0.0879 0.17321,32.8453 c 0.0953,18.06491 0.17322,44.4157 0.17322,58.5573 V 906.3729 L 607.262,906.3212 c -10.91017,-0.0284 -20.67066,-0.0918 -21.68999,-0.14081 z"
         id="path36"
         transform="scale(0.26458333)" /><path
         style="display:inline;fill:#ed1c24;fill-opacity:1;stroke:none;stroke-width:0;stroke-dasharray:none;stroke-opacity:1"
         d="m 672.23519,906.62319 c -4.43561,-0.0955 -10.61099,-0.26587 -13.72307,-0.37862 l -5.65832,-0.205 v -58.5184 -58.51841 l 21.65773,0.18443 c 11.91175,0.10144 21.70238,0.22362 21.75694,0.27152 0.14026,0.12312 0.48888,13.56007 0.80257,30.93358 0.29567,16.37571 0.3673,75.29967 0.0991,81.4968 l -0.16984,3.92388 -1.6382,0.28528 c -3.19575,0.55651 -12.18375,0.76052 -23.12688,0.52494 z"
         id="path37"
         transform="scale(0.26458333)" /></g><g
       id="g2"><path
         style="fill:#ed1c24;fill-opacity:1;stroke:#000000;stroke-width:0;stroke-dasharray:none"
         d="m 390.63621,755.02204 c -8.12083,-1.455 -16.76056,-5.66962 -21.43449,-10.45616 l -2.423,-2.48138 h -72.09579 -72.0958 l -0.3074,-1.3891 c -0.16907,-0.764 -2.95258,-24.26625 -6.18558,-52.22722 -3.23298,-27.96098 -6.01561,-51.06054 -6.1836,-51.33235 -0.168,-0.27182 -19.43378,-14.43087 -42.81285,-31.46454 l -42.5074,-30.97032 -1.63815,-8.45142 c -3.05761,-15.7746 -4.40765,-31.26628 -4.28297,-49.14706 0.13396,-19.21147 0.89216,-29.15137 3.33904,-43.77404 11.35817,-67.87688 48.2123,-129.51087 104.08045,-174.0617 27.46387,-21.90045 62.90033,-40.12042 96.18097,-49.45229 20.72982,-5.81262 55.0625,-10.8821 73.74011,-10.88828 11.63395,-0.004 35.88724,2.51848 50.66787,5.26944 36.84791,6.85809 71.00524,20.73474 102.496,41.63971 36.76666,24.40735 68.45651,58.15136 90.1621,96.00648 23.512,41.00554 36.36618,89.12263 36.37847,136.17558 0.004,15.10177 -3.17233,43.97546 -6.07002,55.17905 -0.39359,1.52178 -7.36788,6.80514 -43.03866,32.60386 l -42.56896,30.78779 -6.29462,52.59386 c -3.46204,28.92662 -6.30968,52.66331 -6.32809,52.7482 -0.0184,0.0849 -32.43166,0.15435 -72.02946,0.15435 h -71.996 l -3.68869,3.41508 c -8.16386,7.5583 -21.91761,11.51945 -33.06348,9.52246 z m 16.29394,-48.37569 c 5.575,-2.64756 10.8552,-6.10548 15.76849,-10.32656 l 3.50116,-3.0079 h 51.47685 51.47684 l 5.13682,-41.20977 c 4.77491,-38.30645 5.2334,-41.29964 6.50765,-42.4854 0.75396,-0.7016 19.87917,-14.56118 42.50046,-30.79907 l 41.12963,-29.52343 0.93292,-4.3913 c 2.07521,-9.76806 2.34954,-12.31159 2.65401,-24.60706 0.33884,-13.68363 -0.26839,-21.29591 -2.36408,-29.63603 -2.38853,-9.50556 -7.17374,-20.83761 -8.79913,-20.83761 -0.44767,0 -3.98586,3.26246 -7.86265,7.24991 -30.81964,31.69942 -130.45092,132.864 -130.6521,132.66283 -0.13937,-0.13938 30.32311,-37.66082 67.69441,-83.38101 50.88917,-62.25802 67.9478,-83.52485 67.9478,-84.70994 0,-4.93792 -8.22684,-23.41997 -15.95408,-35.84173 -6.93766,-11.15248 -12.32017,-17.84586 -18.27417,-22.72471 -2.74419,-2.24867 -3.00554,-2.34052 -3.75257,-1.31889 -0.44163,0.60396 -27.81912,48.03397 -60.83886,105.40001 -33.01975,57.36604 -60.162,104.17579 -60.31612,104.02167 -0.15412,-0.15411 24.0906,-52.11457 53.87716,-115.46767 53.32056,-113.40767 54.14486,-115.2183 53.34862,-117.1831 -1.08936,-2.68809 -14.35975,-15.89019 -21.24889,-21.13955 -14.48921,-11.04041 -29.96883,-18.82465 -37.43445,-18.82465 -1.46806,0 -1.78184,0.36381 -2.52935,2.93253 -0.46935,1.61289 -17.22882,60.52474 -37.24327,130.91521 -20.01444,70.39048 -36.46705,127.61745 -36.56136,127.17104 -0.0943,-0.4464 12.06026,-61.69672 27.01015,-136.11183 14.94988,-74.41509 27.18161,-135.63981 27.18161,-136.0549 0,-0.99082 -1.2655,-1.93556 -6.48244,-4.83941 -8.14243,-4.53224 -21.17387,-8.65603 -34.5995,-10.94898 -6.51411,-1.11254 -29.96756,-1.61396 -30.92261,-0.6611 -0.27183,0.2712 -3.00193,65.35022 -6.06688,144.62004 -3.06495,79.26981 -5.71447,144.12694 -5.88782,144.12694 -0.17336,0 -2.84183,-64.74476 -5.92995,-143.87723 -3.76323,-96.43223 -5.83806,-144.10054 -6.29195,-144.55443 -1.23912,-1.23912 -17.51454,-1.38134 -26.54119,-0.23192 -9.05191,1.15263 -20.17855,3.69326 -27.29974,6.23355 -4.43552,1.58225 -15.11984,6.84109 -17.49366,8.61041 -1.08173,0.80626 0.11841,7.03827 26.41282,137.15442 15.15032,74.97039 27.46757,136.65607 27.37166,137.0793 -0.0959,0.42324 -10.13468,-34.29358 -22.30838,-77.14849 -12.17368,-42.85489 -28.94929,-101.87986 -37.27913,-131.16657 l -15.14515,-53.24858 h -1.9488 c -5.16927,0 -14.9138,3.92165 -24.4226,9.82878 -12.57278,7.81056 -27.68985,20.8113 -32.74857,28.16389 -1.85464,2.69563 -1.97888,3.15607 -1.39553,5.17173 0.35221,1.21696 24.97775,53.87026 54.72344,117.00734 29.74568,63.13707 53.99508,114.88265 53.88756,114.99018 -0.10753,0.10752 -17.99699,-30.71369 -39.75437,-68.49158 -74.79493,-129.86836 -82.9061,-143.93113 -83.16835,-144.19339 -0.54178,-0.54177 -4.55377,2.43594 -7.51359,5.5766 -7.42112,7.87452 -14.76978,19.13665 -22.06354,33.81329 -5.48546,11.03795 -7.79325,17.22217 -7.79325,20.8837 0,2.18646 4.32435,7.62172 67.33324,84.63088 37.03329,45.2619 67.20719,82.42042 67.0531,82.5745 -0.15407,0.15408 -30.9368,-30.92072 -68.40604,-69.05513 -45.41817,-46.22444 -68.53754,-69.33528 -69.36089,-69.33528 -0.96629,0 -1.74653,1.19471 -3.58598,5.49092 -5.7328,13.38947 -8.11952,26.95765 -7.66777,43.59038 0.28296,10.41822 1.91538,22.81415 3.73638,28.37254 0.63584,1.94084 5.26516,5.46518 42.19899,32.12643 22.81664,16.47054 41.63223,30.10254 41.81245,30.29333 0.38121,0.40362 1.23588,6.51019 4.70382,33.60872 4.70931,36.79867 6.13419,48.15305 6.13994,48.92695 0.005,0.6112 10.77715,0.77172 51.78962,0.77172 45.42295,0 51.87889,0.11448 52.55736,0.93198 1.19778,1.44323 9.12055,7.22079 13.55756,9.88662 9.89032,5.94228 15.95833,6.56575 24.48624,2.51586 z"
         id="path41"
         transform="scale(0.26458333)" /><path
         style="display:inline;fill:#ed1c24;fill-opacity:1;stroke:#000000;stroke-width:0;stroke-dasharray:none"
         d="m 77.728971,77.000263 c -0.323869,0.08097 -0.664766,0.111398 -0.971611,0.242903 -1.1126,0.476827 -0.406887,0.51416 -1.457418,1.214515 -0.21304,0.142025 -0.4997,0.128397 -0.72871,0.242903 -1.060386,0.530193 -2.092354,1.167627 -3.157739,1.700321 -0.821401,0.410699 -1.932736,0.660117 -2.671934,1.214514 -0.291092,0.218321 -1.42889,1.078802 -1.700321,1.214517 -0.298593,0.149296 -0.664766,0.111398 -0.971611,0.242903 -0.92466,0.396283 -0.518046,0.449258 -1.214517,0.971611 -0.325514,0.244137 -0.864605,0.345842 -1.214514,0.485807 -0.916813,0.366726 -1.985206,1.013592 -2.671934,1.700321 -1.910705,1.910707 1.17308,-0.532244 -1.214515,1.457418 -1.184682,0.987237 -2.214168,2.169011 -3.400641,3.157741 -0.224272,0.186891 -0.522283,0.279376 -0.728711,0.485804 -0.206427,0.206428 -0.303437,0.500748 -0.485806,0.72871 -0.606748,0.758436 -1.335755,1.426789 -1.943225,2.186128 -0.995415,1.244269 -1.644718,2.756805 -2.429028,4.129352 -1.10149,1.927599 0.220874,-0.55213 -1.214517,1.457417 -0.443976,0.621572 -0.835541,1.280022 -1.214514,1.943222 -0.901465,1.57756 -2.101482,4.60413 -2.671935,6.31548 -0.130556,0.39167 -0.112347,0.82285 -0.242903,1.21452 -0.324186,0.97256 -0.933413,1.93098 -1.214514,2.91483 -0.06673,0.23356 0.04764,0.49053 0,0.72871 -0.304451,1.52226 -1.325131,2.8715 -1.700321,4.37226 -0.227111,0.90844 -0.388477,2.00754 -0.72871,2.91483 -0.512249,1.36601 -1.415119,3.18915 -1.700321,4.61516 -0.04764,0.23819 0.04764,0.49052 0,0.72871 -0.102481,0.51241 -0.51788,1.03576 -0.72871,1.45742 -0.222883,0.44576 0,3.15577 0,3.64354 0,1.89468 0.07681,-0.46087 -0.242901,1.45742 -0.09318,0.55906 0.0703,1.13793 0,1.70032 -0.04141,0.33126 -0.195691,0.64113 -0.242903,0.97162 -0.158277,1.10792 0.183911,2.29717 0,3.40064 -0.02977,0.17858 -0.207397,0.30827 -0.242904,0.4858 -0.144592,0.72297 -0.176535,6.09514 0,6.80129 0.172662,0.69065 0.567404,1.16138 0.971611,1.70032 0.476716,0.63562 0.937133,2.13441 1.45742,2.91484 0.846297,1.26944 2.385052,1.55688 3.643546,2.18613 0.522224,0.26111 0.950478,0.68193 1.457417,0.97161 0.700876,0.4005 1.536904,0.72759 2.186128,1.21451 1.558613,1.16896 4.007625,2.73225 5.100963,4.37226 0.400235,0.60035 1.813623,2.26166 2.429031,2.67193 0.301284,0.20086 0.685789,0.2635 0.971611,0.4858 1.601705,1.24578 2.987071,3.05931 3.886448,4.85807 0.559152,1.1183 0.01577,0.32168 0.242904,1.45741 0.03551,0.17754 0.161935,0.32388 0.242903,0.48581 0.08097,0.2429 0.200811,0.47615 0.242903,0.72871 0.276196,1.65717 -0.208653,3.43173 0,5.10096 0.07102,0.56811 0.104045,1.14489 0.242904,1.70032 0.626665,2.50668 0.174077,0.59107 0.971611,2.18613 0.940797,1.8816 1.390851,4.12157 2.671934,5.82968 0.549042,0.73205 1.14771,1.44931 1.700321,2.18612 0.575027,0.76671 -0.182544,0.30326 0.72871,1.21452 0.04618,0.0462 2.119315,1.19781 2.186125,1.21451 1.151004,0.28775 3.406164,0 4.615159,0 1.825601,0 3.523755,-0.12156 5.343866,-0.2429 2.404023,-0.16027 4.877229,0 7.287091,0 1.188257,0 2.461855,-0.11817 3.643548,0 0.659879,0.066 1.751211,0.12993 2.429028,0.2429 0.581435,0.0969 1.116793,0.40245 1.700321,0.48581 0.956638,0.13666 1.9582,0.10624 2.914838,0.2429 0.804979,0.115 1.607878,0.39457 2.429036,0.48581 2.36216,0.26246 4.91286,0 7.28709,0 2.76377,0 5.48389,0.2429 8.2587,0.2429 1.4859,0 -0.84427,-0.0512 1.21451,0.2429 0.32062,0.0458 0.64973,-0.0358 0.97161,0 1.48634,0.16515 2.9023,0.76162 4.37226,0.97162 1.14656,0.16379 2.40204,-0.2564 3.40064,0.2429 0.37159,0.18579 3.5997,-0.64044 4.12935,-0.72871 3.26647,-0.54441 0.0814,-0.005 3.64355,-0.2429 1.53342,-0.10223 3.10901,-0.42748 4.61516,-0.72871 1.44213,-0.28843 3.12484,-0.59081 4.37225,-1.21452 0.30436,-0.15218 0.23239,-0.48055 0.72871,-0.72871 0.24909,-0.12454 0.72253,-0.11835 0.97161,-0.2429 0.10242,-0.0512 0.16194,-0.16193 0.24291,-0.2429 0.081,-0.081 0.14048,-0.1917 0.2429,-0.24291 0.0724,-0.0362 0.18565,0.0573 0.2429,0 0.0573,-0.0573 -0.0573,-0.18565 0,-0.2429 0.0573,-0.0573 0.18565,0.0572 0.24291,0 0.35002,-0.35002 0.38634,-1.9317 0.4858,-2.42903 0.14133,-0.70664 0.50163,-1.50488 0.72871,-2.18613 0.27752,-0.83256 0,-2.29087 0,-3.15774 0,-1.29269 -0.28033,-5.19415 0,-6.31547 0.18818,-0.75272 0.75017,-1.5218 0.97161,-2.18613 0.17893,-0.53679 0.12913,-0.6795 0.48581,-1.21452 1.01821,-1.52732 2.40537,-3.01854 3.88645,-4.12935 0.28968,-0.21726 0.68193,-0.26855 0.97161,-0.4858 0.18321,-0.13741 0.28943,-0.36799 0.48581,-0.48581 0.81882,-0.4913 1.90182,-0.63694 2.67193,-1.21452 0.67231,-0.50423 1.2843,-1.17318 1.94322,-1.70032 1.37151,-1.0972 2.98518,-3.35593 3.88645,-4.85806 0.1863,-0.3105 0.26855,-0.68193 0.48581,-0.97161 0.3873,-0.51641 0.84744,-0.90681 1.21451,-1.45742 0.18198,-0.27296 0.84573,-1.57444 0.97162,-1.70032 0.0573,-0.0573 0.18565,0.0572 0.2429,0 0.16112,-0.16112 0.29577,-0.96113 0.48581,-1.21451 0.65951,-0.87936 1.36814,-1.71347 1.94322,-2.67194 0.13173,-0.21955 0.10087,-0.51567 0.2429,-0.72871 0.9575,-1.43625 1.94752,-2.92127 2.91484,-4.37225 0.12703,-0.19055 0.38339,-0.28097 0.4858,-0.48581 0.26011,-0.52021 0,-3.53994 0,-4.37225 0,-1.54654 0.4318,-4.23738 -0.2429,-5.58677 -0.12955,-0.2591 0.12955,-0.71252 0,-0.97161 -0.19208,-0.38417 -0.47858,-0.59643 -0.72871,-0.97162 -0.32684,-0.49027 -0.58644,-1.37417 -0.72871,-1.94322 -0.0786,-0.3142 0.0786,-0.65741 0,-0.97161 -0.17236,-0.68947 -0.44329,-1.52016 -0.72871,-2.18613 -0.0836,-0.69939 -0.71446,-1.10032 -0.97161,-1.70032 -0.2322,-0.54179 -0.26689,-1.15303 -0.4858,-1.70032 -0.50919,-1.27296 -1.02284,-2.58271 -1.45742,-3.88645 -0.17943,-0.53829 0,-1.61848 0,-2.18613 0,-1.78129 0,-3.56258 0,-5.34387 0,-0.83626 0.13666,-1.85195 0,-2.67193 -0.0717,-0.43009 -0.41413,-0.78442 -0.48581,-1.21451 -0.12205,-0.73233 -0.0746,-1.50087 -0.4858,-2.18613 -1.35558,-2.2593 0.48682,1.70236 -0.97162,-1.21452 -0.56889,-1.13778 -1.16844,-2.12469 -1.94322,-3.15774 -1.3104,-1.747192 0.26971,0.51262 -0.97161,-0.7287 -0.12802,-0.12803 -0.11489,-0.35779 -0.24291,-0.485812 -0.12802,-0.128021 -0.34096,-0.134273 -0.4858,-0.242903 -0.43301,-0.324758 -0.82746,-0.827458 -1.21452,-1.214514 -0.44559,-0.445593 -0.79867,-1.041583 -1.21451,-1.457421 -0.12802,-0.128021 -0.37718,-0.09806 -0.48581,-0.2429 -0.15362,-0.204835 -0.0893,-0.523878 -0.2429,-0.72871 -0.10863,-0.144841 -0.35779,-0.114882 -0.48581,-0.242904 -0.37392,-0.373919 -0.59769,-1.083498 -0.97161,-1.457417 -0.12802,-0.128022 -0.34097,-0.134274 -0.48581,-0.242904 -1.01485,-0.761137 -1.87413,-1.957477 -2.67193,-2.914838 -0.61535,-0.738417 -1.02285,-1.751557 -1.70032,-2.429028 -1.40558,-1.40558 -3.25753,-2.257406 -4.85806,-3.400642 -0.77321,-0.552296 -1.57053,-1.271074 -2.42903,-1.700323 -1.40078,-0.70039 -0.0652,0.315481 -1.45742,-0.728708 -0.79497,-0.596231 -1.64508,-1.112361 -2.42903,-1.700321 -0.32387,-0.242903 -0.40484,-0.72871 -0.72871,-0.971613 -0.20483,-0.153625 -0.50915,-0.11117 -0.72871,-0.242904 -0.19638,-0.117824 -0.29526,-0.358772 -0.48581,-0.485804 -1.01455,-0.676373 -2.0503,-0.982803 -3.15773,-1.45742 -0.10525,-0.04511 -0.16194,-0.161936 -0.24291,-0.242903 -0.40484,-0.161933 -0.80086,-0.347922 -1.21451,-0.485805 -0.46696,-0.155654 -1.23247,-0.25188 -1.70032,-0.485806 -1.30141,-0.650706 -2.53301,-1.363179 -3.88645,-1.943225 -0.77808,-0.333462 -1.67211,-0.350247 -2.42903,-0.72871 -4.65337,-2.326682 -9.9352,-3.64014 -15.05999,-4.372253 -0.80154,-0.114506 -1.61935,0 -2.42903,0 -1.59756,0 -3.26841,-0.132471 -4.85806,0 -1.5617,0.130141 -3.077634,0.692061 -4.615159,0.971611 -0.390301,0.07096 -2.21039,0.347343 -2.671935,0.485807 -0.417634,0.125291 -0.809675,0.323871 -1.214514,0.485807 -0.485807,0.08097 -0.982266,0.113316 -1.457418,0.242901 -0.420661,0.114726 -0.786958,0.400296 -1.214517,0.485806 -0.396975,0.0794 -0.812151,-0.04471 -1.214514,0 -0.856168,0.09513 -1.595723,0.589825 -2.429031,0.72871 -0.239596,0.03993 -0.490521,-0.04764 -0.728707,0 -1.189604,0.237922 -2.620497,1.329394 -3.643546,1.943225 -0.548973,0.329382 -1.330819,0.575606 -1.943224,0.728707 -0.157102,0.03928 -0.340968,-0.07242 -0.485807,0 -0.07242,0.03621 0.05725,0.18565 0,0.242904 -0.168296,0.168296 -1.046218,0.07461 -1.214514,0.242903 -0.05725,0.05725 0.05725,0.18565 0,0.242903 -0.237485,0.237485 -1.638178,0.473377 -1.700323,0.485807 z"
         id="path69" /><path
         style="fill:#ffd500;fill-opacity:1;stroke:#000000;stroke-width:0;stroke-dasharray:none"
         d="m 103.18585,187.18403 c -1.53189,-0.60526 -4.483405,-2.53983 -5.35345,-3.50892 l -0.311177,-0.3466 H 83.825387 c -7.532711,0 -13.696288,-0.0551 -13.696839,-0.12251 -5.29e-4,-0.0674 -0.217622,-1.81315 -0.482383,-3.87949 -0.264758,-2.06634 -0.707313,-5.52113 -0.983459,-7.67731 -0.537847,-4.19959 -1.083685,-8.39701 -1.245139,-9.57495 l -0.09932,-0.72458 -10.833407,-7.81305 C 50.526466,149.23943 45.506148,145.56608 45.328576,145.37359 44.704233,144.69683 44,140.05219 44,136.61125 c 0,-4.27888 0.838096,-8.26259 2.377334,-11.30013 l 0.411985,-0.81301 0.702551,0.62528 c 0.386403,0.3439 8.793826,8.85797 18.68316,18.92015 18.21929,18.53773 20.117271,20.44905 19.870354,20.01002 -0.07579,-0.13477 -8.342403,-10.27862 -18.370246,-22.5419 -10.027843,-12.26328 -18.584193,-22.77467 -19.014106,-23.35863 -0.732568,-0.99507 -0.776015,-1.10967 -0.691748,-1.82457 0.181269,-1.53785 2.569548,-6.52696 4.638021,-9.68882 1.475941,-2.25612 3.369771,-4.5703 4.21739,-5.15348 l 0.710308,-0.4887 0.641588,1.10465 c 0.352872,0.60756 5.509355,9.55787 11.458848,19.88957 5.949492,10.33171 13.364337,23.20797 16.477427,28.61392 3.113093,5.40595 5.680606,9.77338 5.705591,9.70539 0.02498,-0.068 -6.792717,-14.64844 -15.150444,-32.40101 C 68.310289,110.1574 61.472151,95.524767 61.472151,95.393012 c 0,-0.394044 1.365851,-2.089121 2.745349,-3.407082 4.024992,-3.845456 9.35868,-7.087743 12.211105,-7.422988 l 0.863076,-0.101439 0.233728,0.796912 c 0.128553,0.438301 4.8177,16.920715 10.420331,36.627595 5.602632,19.70688 10.210903,35.75779 10.240603,35.66869 0.0297,-0.0891 -3.325506,-16.87935 -7.456014,-37.31168 C 86.599823,99.810694 83.170858,82.656196 83.110411,82.121907 l -0.109905,-0.971431 1.364342,-0.763932 c 1.779815,-0.996566 3.382378,-1.625552 5.693043,-2.234454 3.421787,-0.901702 4.695655,-1.067048 8.276251,-1.074237 1.811788,-0.0037 3.334198,0.03342 3.383128,0.08234 0.15321,0.153217 0.35773,4.939546 1.84061,43.075507 0.79387,20.41635 1.48212,37.12063 1.52945,37.12063 0.0473,0 0.76745,-17.77012 1.60028,-39.48916 0.83283,-21.719041 1.55388,-39.760229 1.60233,-40.091538 0.0871,-0.595347 0.0989,-0.603721 1.01046,-0.717619 1.28341,-0.160351 5.35786,0.03088 7.21972,0.338847 2.0875,0.345292 4.89591,1.08876 6.48545,1.716892 1.55213,0.613346 3.81598,1.820103 4.01465,2.140029 0.0896,0.144343 -2.64791,14.112586 -7.47101,38.120589 -4.18687,20.84103 -7.59193,37.98658 -7.56681,38.10123 0.0251,0.11465 4.72269,-16.23879 10.43905,-36.34098 l 10.39338,-36.549423 0.71422,0.02416 c 2.76609,0.09354 8.88693,3.863035 12.97701,7.991842 0.81503,0.822746 1.6336,1.753074 1.81906,2.067391 l 0.33718,0.571489 -0.60535,1.451465 c -0.33295,0.79831 -7.16731,15.404866 -15.18747,32.459016 -8.02017,17.05415 -14.55046,31.0392 -14.51176,31.0779 0.0387,0.0387 7.63135,-13.06938 16.87257,-29.12905 9.24123,-16.05968 16.92523,-29.40598 17.07558,-29.65846 l 0.27335,-0.45904 0.98835,0.82251 c 2.40094,1.99808 6.17233,7.94674 7.93119,12.50995 0.96377,2.5004 0.9642,2.49263 -0.22606,4.04687 -0.56305,0.73524 -9.21545,11.35919 -19.22753,23.60878 -10.01208,12.24959 -18.17304,22.30273 -18.13545,22.34032 0.0376,0.0376 8.87096,-8.89906 19.62973,-19.85922 10.75877,-10.96015 19.62087,-19.92755 19.69355,-19.92755 0.20824,0 1.41127,2.87214 1.88155,4.49204 0.73478,2.53099 0.94385,4.62998 0.85419,8.57572 -0.0773,3.39974 -0.48403,6.67218 -0.93383,7.51265 -0.0829,0.15497 -5.15501,3.87397 -11.27126,8.26445 -7.25831,5.21029 -11.14451,8.0974 -11.18971,8.31299 -0.0829,0.39569 -2.69519,21.19787 -2.69519,21.46277 0,0.13539 -3.61175,0.18432 -13.60571,0.18432 h -13.60572 l -0.97301,0.82608 c -0.53516,0.45434 -1.48123,1.16214 -2.10238,1.57291 -2.73259,1.80703 -4.50123,2.20916 -6.40608,1.45653 z"
         id="path42" /></g></g></svg>
